<svg version="1.1" id="Layer_1" xmlns="http://www.w3.org/2000/svg" xmlns:xlink="http://www.w3.org/1999/xlink" x="0px" y="0px"
	 width="100%" viewBox="0 0 1024 1024" enable-background="new 0 0 1024 1024" xml:space="preserve">
<path fill="#000000" opacity="1.000000" stroke="none" 
	d="
M487.121338,478.005615 
	C487.125549,498.154419 487.144684,517.804138 487.125122,537.453796 
	C487.118958,543.676025 486.755585,544.035706 480.709961,544.066833 
	C473.383148,544.104553 466.049316,543.890564 458.731598,544.151978 
	C454.567291,544.300781 452.012329,542.978027 450.050415,539.133545 
	C445.317993,529.859985 440.141693,520.812988 434.383240,511.905487 
	C434.383240,520.487549 434.183655,529.076172 434.462952,537.649109 
	C434.614716,542.307190 433.204559,544.358154 428.277832,544.125183 
	C421.631073,543.810852 414.958649,543.941223 408.299316,544.031311 
	C404.933411,544.076904 403.594238,542.765442 403.608093,539.299255 
	C403.703888,515.320374 403.701691,491.340729 403.612732,467.361786 
	C403.600006,463.927551 404.819977,462.617981 408.279480,462.682648 
	C416.602722,462.838287 424.932831,462.839142 433.255920,462.680115 
	C436.363922,462.620758 438.138000,463.891083 439.544128,466.531189 
	C443.691040,474.317200 448.001282,482.016327 452.266052,489.739258 
	C453.123260,491.291534 454.061890,492.798828 455.841766,494.164246 
	C455.841766,485.763367 456.051605,477.355225 455.760040,468.964478 
	C455.595337,464.225159 457.123657,462.384888 462.013153,462.650146 
	C468.488190,463.001404 475.006714,462.938843 481.488251,462.647461 
	C485.968140,462.446106 487.480560,464.278442 487.164307,468.517426 
	C486.941925,471.498260 487.121277,474.509094 487.121338,478.005615 
z"/>
<path fill="#000000" opacity="1.000000" stroke="none" 
	d="
M583.701172,576.163452 
	C586.329834,576.310852 588.578186,576.890076 590.636658,576.490662 
	C597.854675,575.090027 601.350708,578.627991 604.227051,584.798157 
	C607.984192,592.857849 612.742676,600.450806 617.925842,607.980713 
	C617.925842,599.532532 618.064331,591.081116 617.869019,582.637390 
	C617.767151,578.231079 619.163086,576.274048 623.898926,576.516235 
	C630.547119,576.856201 637.229736,576.744995 643.889587,576.552002 
	C647.688293,576.441956 649.281494,577.728271 649.261047,581.697693 
	C649.140198,605.193176 649.133362,628.689819 649.223572,652.185547 
	C649.238220,655.992554 648.014221,657.558228 644.025085,657.445007 
	C635.866272,657.213196 627.692566,657.227783 619.532898,657.442261 
	C616.054688,657.533691 614.093506,656.284546 612.492737,653.214844 
	C607.602539,643.836792 602.421753,634.610291 596.234558,625.578857 
	C596.234558,633.663879 596.242493,641.748840 596.232178,649.833801 
	C596.222595,657.354980 596.214050,657.363586 588.484985,657.375610 
	C582.485962,657.385010 576.484558,657.265259 570.488953,657.406189 
	C567.202148,657.483459 565.627075,656.467102 565.639282,652.884949 
	C565.721680,628.722595 565.719543,604.559509 565.607300,580.397339 
	C565.592712,577.252136 566.973633,576.243042 569.738770,576.226929 
	C574.237122,576.200623 578.735535,576.173340 583.701172,576.163452 
z"/>
<path fill="#000000" opacity="1.000000" stroke="none" 
	d="
M502.563263,575.090210 
	C518.489319,573.616211 532.701965,576.626282 543.689636,588.359070 
	C554.956604,600.389954 558.266479,614.696960 552.960083,630.415283 
	C547.702942,645.987610 536.239563,654.909180 520.429138,658.191223 
	C505.468140,661.296875 491.372223,658.688538 479.592773,648.755066 
	C466.958801,638.101013 462.522766,623.975525 465.980865,607.840942 
	C469.386200,591.952698 479.633301,582.002197 494.862000,576.976379 
	C497.224274,576.196777 499.697876,575.754639 502.563263,575.090210 
M509.603302,629.951538 
	C517.585938,629.328796 521.647644,625.304504 521.829407,617.838074 
	C522.011292,610.368774 517.978821,604.996582 511.588318,604.194641 
	C504.960419,603.362854 499.510620,607.478577 498.400940,614.153870 
	C497.012085,622.508606 500.728149,628.146301 509.603302,629.951538 
z"/>
<path fill="#000000" opacity="1.000000" stroke="none" 
	d="
M647.984192,478.971436 
	C648.004517,474.814880 648.046631,471.151428 648.038940,467.488037 
	C648.032166,464.271790 649.281982,462.620789 652.813477,462.700470 
	C660.137268,462.865692 667.468445,462.820526 674.794556,462.717957 
	C678.015503,462.672882 679.240295,464.083130 679.234131,467.217499 
	C679.187012,491.198425 679.173584,515.179626 679.246521,539.160400 
	C679.256836,542.556458 677.894348,544.034973 674.539368,544.013123 
	C667.378906,543.966431 660.216187,543.929810 653.057556,544.062073 
	C649.086670,544.135376 647.836060,542.214478 647.923157,538.521606 
	C648.064453,532.529907 647.892456,526.531555 647.962280,520.537231 
	C647.995667,517.670410 646.980530,516.253052 643.890320,516.303955 
	C628.322327,516.560974 631.591187,514.371643 631.229431,528.335632 
	C631.138916,531.830444 631.099731,535.335205 631.257568,538.825439 
	C631.416504,542.339783 630.135864,544.108032 626.411499,544.053650 
	C619.252136,543.948975 612.089600,543.973999 604.929504,544.048096 
	C601.396484,544.084656 599.840698,542.626953 599.853821,538.972412 
	C599.938354,515.324707 599.940491,491.676575 599.880432,468.028839 
	C599.871033,464.334045 601.031860,462.538605 605.083862,462.678741 
	C612.070068,462.920380 619.075073,462.902283 626.063232,462.693054 
	C630.040344,462.574005 631.375610,464.217285 631.259033,468.018738 
	C631.080444,473.841858 631.322510,479.677246 631.181213,485.502411 
	C631.103333,488.713348 632.372131,490.165436 635.575989,489.931030 
	C636.238098,489.882568 636.907776,489.945984 637.573730,489.939819 
	C649.198120,489.832733 647.876526,491.111847 647.984192,478.971436 
z"/>
<path fill="#000000" opacity="1.000000" stroke="none" 
	d="
M338.667664,544.054749 
	C328.959808,543.823792 319.674988,544.618347 310.886780,543.588135 
	C309.621155,541.913452 310.221497,540.799072 310.539520,539.716248 
	C317.567657,515.784241 324.686371,491.878357 331.572296,467.905579 
	C332.677917,464.056427 334.376709,462.515747 338.497070,462.631439 
	C348.479065,462.911835 358.475739,462.825409 368.463074,462.669067 
	C371.691223,462.618591 373.277008,463.853455 374.159119,466.892639 
	C381.158173,491.007263 388.209229,515.107117 395.364594,539.175720 
	C396.445251,542.810791 395.337158,544.083923 391.746735,544.054871 
	C383.922089,543.991455 376.086975,543.815002 368.274841,544.137634 
	C363.742950,544.324890 361.105865,542.787659 360.983307,538.235596 
	C360.805908,531.646423 356.335754,532.484436 351.912170,532.227051 
	C347.299347,531.958740 345.113678,533.587585 344.784088,538.172729 
	C344.540527,541.560791 343.525818,544.513977 338.667664,544.054749 
M351.176392,505.498657 
	C350.913635,506.620331 350.526276,507.730530 350.421417,508.866791 
	C350.304993,510.128357 349.928833,511.600708 351.400970,512.414490 
	C352.482330,513.012207 353.737274,512.992493 354.715668,512.325745 
	C356.046906,511.418457 355.586060,509.980560 355.339447,508.689911 
	C354.682190,505.250275 354.009064,501.813599 353.342224,498.375763 
	C353.098206,498.408234 352.854156,498.440674 352.610107,498.473145 
	C352.171356,500.543213 351.732605,502.613312 351.176392,505.498657 
z"/>
<path fill="#000000" opacity="1.000000" stroke="none" 
	d="
M752.363403,473.771118 
	C759.130554,496.925354 765.792908,519.692810 772.367310,542.159851 
	C770.315491,544.376953 768.206909,543.916199 766.282715,543.934387 
	C758.959167,544.003540 751.625610,543.757751 744.313782,544.062195 
	C739.924316,544.244873 737.883545,542.719604 737.509277,538.303101 
	C737.327576,536.158936 737.489014,533.006897 734.558716,532.600464 
	C730.826416,532.082886 726.782532,531.425842 723.269653,533.037292 
	C721.352783,533.916565 721.501038,536.822754 721.272034,538.937256 
	C720.880188,542.556213 719.138855,544.135559 715.380493,544.059998 
	C707.227478,543.896118 699.068542,544.045288 690.912231,544.011475 
	C689.464172,544.005432 687.877136,544.256409 686.437256,542.586426 
	C686.451416,539.172302 688.031067,535.801392 689.028381,532.356445 
	C695.178284,511.113037 701.587280,489.943939 707.616394,468.666931 
	C708.871094,464.239044 710.722046,462.410583 715.515869,462.627197 
	C724.320251,463.025024 733.155334,462.746765 741.977661,462.739258 
	C749.358276,462.732971 749.354919,462.726837 751.291809,470.033264 
	C751.589661,471.156738 751.935059,472.267578 752.363403,473.771118 
M728.852417,499.393707 
	C727.869812,503.657166 726.220215,507.837524 726.928650,512.282898 
	C728.833801,512.958374 730.407654,513.216492 732.110046,511.979309 
	C732.098816,507.387543 730.715027,502.957489 729.735535,498.465393 
	C729.628540,497.974701 729.322510,497.962463 729.101868,498.387024 
	C729.026855,498.531403 729.001892,498.701752 728.852417,499.393707 
z"/>
<path fill="#000000" opacity="1.000000" stroke="none" 
	d="
M237.266113,482.426819 
	C251.738800,457.011871 284.564423,456.421631 302.900909,469.713318 
	C306.702362,472.468903 307.741058,474.920319 304.579315,479.021332 
	C301.240356,483.352173 298.476135,488.145660 295.675720,492.864563 
	C294.056610,495.592896 292.518585,496.225403 289.766663,494.233917 
	C286.358734,491.767700 282.502991,490.228302 278.155670,490.244263 
	C272.829803,490.263824 268.705139,492.449005 266.499634,497.311493 
	C264.207306,502.365326 264.522034,507.542786 268.089630,511.901520 
	C271.378754,515.920044 275.913696,517.385315 281.100586,516.212891 
	C284.381378,515.471313 287.454071,514.176147 290.144379,512.148499 
	C292.423157,510.431000 293.925964,510.915771 295.363342,513.286804 
	C298.640106,518.691956 301.958038,524.079834 305.487366,529.321106 
	C307.348785,532.085388 306.410217,533.795532 304.237701,535.660339 
	C298.236542,540.811584 291.180786,543.517456 283.518250,544.870728 
	C255.432877,549.830811 230.963638,529.500854 231.796295,501.802704 
	C231.998657,495.071320 233.845169,488.689728 237.266113,482.426819 
z"/>
<path fill="#000000" opacity="1.000000" stroke="none" 
	d="
M424.128723,631.464539 
	C420.564728,627.999329 415.946014,627.295227 411.941650,625.329529 
	C406.967224,622.887512 402.143341,620.251221 398.731262,615.751282 
	C391.019928,605.581360 392.592133,591.746826 402.303619,583.383667 
	C416.436798,571.212708 442.378143,572.022644 455.724518,584.963928 
	C457.712280,586.891357 458.418976,588.625183 456.552216,590.963501 
	C455.830750,591.867188 455.326874,592.942566 454.703156,593.926636 
	C452.565277,597.299683 451.112701,601.636841 448.100677,603.793335 
	C444.247772,606.551758 441.562408,600.517151 437.643738,600.355225 
	C437.163422,600.335327 436.702454,600.023438 436.217377,599.914001 
	C433.613770,599.326416 430.312714,598.246704 429.128113,601.300537 
	C427.828735,604.650085 431.633514,604.919922 433.648468,605.910645 
	C436.477936,607.302063 439.525146,608.243652 442.394989,609.561096 
	C455.922485,615.770996 459.092926,624.872803 458.927246,633.978271 
	C458.742828,644.114258 450.622375,653.524902 439.542053,656.994446 
	C423.750732,661.939270 408.925018,659.184265 395.240967,650.229736 
	C389.563507,646.514648 389.588043,645.607361 393.161224,639.918518 
	C395.461945,636.255554 397.785400,632.606445 400.142090,628.979431 
	C400.387817,628.601318 400.928833,628.414978 401.726440,627.871460 
	C406.048462,631.099792 410.949310,633.612976 416.428009,634.355652 
	C419.217407,634.733643 422.914032,636.346741 424.128723,631.464539 
z"/>
<path fill="#000000" opacity="1.000000" stroke="none" 
	d="
M570.333618,498.126190 
	C570.329346,511.921936 570.212097,525.238953 570.389221,538.552002 
	C570.442749,542.579468 569.221680,544.295166 565.004639,544.141479 
	C558.189209,543.893250 551.357666,543.982605 544.535034,544.077332 
	C540.960449,544.126892 539.524841,542.721680 539.562744,539.029297 
	C539.709839,524.716614 539.485779,510.399170 539.722473,496.088837 
	C539.798767,491.474884 538.207642,489.776154 533.658386,490.118958 
	C529.852295,490.405762 526.005859,490.119263 522.178711,490.176910 
	C519.346191,490.219513 517.790894,489.104431 517.803772,486.096191 
	C517.831604,479.605286 517.807007,473.113983 517.769958,466.623016 
	C517.754456,463.906311 519.074646,462.725494 521.755127,462.728699 
	C543.892090,462.755035 566.029053,462.771637 588.165894,462.729431 
	C591.194885,462.723663 592.292236,464.118134 592.259705,466.999481 
	C592.188232,473.323334 592.188171,479.649414 592.274658,485.972992 
	C592.315063,488.924500 591.054077,490.243317 588.103333,490.182190 
	C584.609680,490.109772 581.113159,490.189972 577.617859,490.188202 
	C570.345703,490.184479 570.345703,490.180206 570.333618,498.126190 
z"/>
<path fill="#000000" opacity="1.000000" stroke="none" 
	d="
M779.764160,500.000000 
	C779.758728,489.183990 779.898560,478.864960 779.679626,468.553497 
	C779.590027,464.332123 780.821045,462.493988 785.327026,462.692108 
	C792.135803,462.991425 798.970886,462.904938 805.787781,462.722260 
	C809.441162,462.624329 810.915771,464.084656 810.897156,467.667725 
	C810.808105,484.804474 810.787720,501.941650 810.773438,519.078674 
	C810.768127,525.391907 810.760620,531.707336 810.917969,538.017700 
	C811.019653,542.094849 809.646484,544.173950 805.163513,544.009705 
	C798.517090,543.766174 791.851562,543.825012 785.200684,544.000977 
	C781.148560,544.108154 779.623108,542.570374 779.686707,538.435181 
	C779.881226,525.792725 779.762146,513.145447 779.764160,500.000000 
z"/>
<path fill="#000000" opacity="1.000000" stroke="none" 
	d="
M417.323181,352.345764 
	C418.760773,349.342834 418.111755,344.897369 422.452606,344.966919 
	C426.408081,345.030334 426.020477,349.201538 427.136047,351.764282 
	C428.365448,354.588593 429.232056,357.570801 430.703430,360.437683 
	C431.870331,356.278839 435.584351,352.705780 432.684723,347.922424 
	C431.679504,346.264069 432.576721,345.005188 434.495209,344.804688 
	C435.977203,344.649841 437.487823,344.630585 438.976257,344.715973 
	C440.389435,344.797058 442.143677,344.265106 442.933746,346.019653 
	C443.705353,347.733185 442.120239,348.601196 441.424835,349.863129 
	C438.844269,354.545776 437.938904,359.857330 436.211700,364.866608 
	C435.670502,366.436279 435.247437,368.046692 434.771759,369.638885 
	C434.165833,371.666870 433.322205,373.338104 430.731232,373.227753 
	C428.402222,373.128601 427.694336,371.522797 427.103607,369.728882 
	C425.613739,365.204468 424.137451,360.675598 421.641083,356.122650 
	C420.460175,359.668427 419.449249,363.283447 418.041779,366.736908 
	C417.012207,369.263000 417.491486,373.262695 413.131317,373.170197 
	C409.024628,373.083038 409.707825,369.274261 408.736023,366.893982 
	C406.192108,360.663177 406.046143,353.492798 401.343140,348.092194 
	C401.059448,347.766449 400.864014,347.073456 401.012268,346.706970 
	C402.440765,343.175110 405.541901,345.050507 407.911224,344.765625 
	C409.597046,344.562958 412.655823,344.683960 411.645874,347.144836 
	C409.565338,352.214478 412.455048,356.078491 413.561035,361.239594 
	C415.755798,358.285248 416.071106,355.312531 417.323181,352.345764 
z"/>
<path fill="#000000" opacity="1.000000" stroke="none" 
	d="
M586.359741,359.143738 
	C586.752563,363.068512 584.803040,367.263031 589.089722,369.827362 
	C589.311829,369.960205 589.412598,370.414825 589.440735,370.731171 
	C589.541321,371.860535 589.063110,372.841949 587.948303,372.966248 
	C584.845642,373.312286 581.607727,374.069275 578.723145,372.381653 
	C577.545166,371.692505 578.412781,370.426575 578.894226,369.302765 
	C581.850098,362.402222 582.011963,355.419250 578.815002,348.557465 
	C577.751282,346.274323 578.071777,345.084900 580.628967,344.763641 
	C584.356079,344.295471 587.398010,344.796265 589.200012,348.873352 
	C591.052979,353.066040 593.543823,356.976868 596.265076,361.940399 
	C599.066162,356.840607 601.363892,352.665649 603.653076,348.485992 
	C604.712769,346.551117 605.799561,344.889130 608.424927,344.676392 
	C613.658020,344.252258 613.813416,345.052826 612.668640,350.093384 
	C611.285095,356.185303 610.576599,362.748230 613.133606,368.686462 
	C614.761292,372.466797 613.580627,373.165710 610.360901,373.242950 
	C608.534790,373.286743 606.678833,373.323090 604.883057,373.052490 
	C602.991638,372.767517 602.034485,370.948212 603.387085,369.843506 
	C607.715576,366.308197 605.118225,361.889038 604.854065,357.483276 
	C603.170105,360.595764 601.538757,363.738220 599.789185,366.813324 
	C597.541260,370.764008 595.226135,370.827545 592.852783,366.988586 
	C590.797607,363.664368 589.539551,359.854889 586.516235,356.391907 
	C586.442261,357.568451 586.403687,358.181335 586.359741,359.143738 
z"/>
<path fill="#000000" opacity="1.000000" stroke="none" 
	d="
M555.943970,344.638184 
	C565.011902,345.432556 570.650818,351.637604 570.157776,359.799011 
	C569.662659,367.994904 563.676819,373.458374 555.286499,373.372528 
	C547.424927,373.292084 541.019836,366.938477 540.942993,359.144379 
	C540.864258,351.161621 546.900940,345.146729 555.943970,344.638184 
M547.367920,359.447601 
	C548.719055,366.119019 551.798340,368.688934 557.290466,367.728699 
	C561.712708,366.955505 564.477051,362.156952 563.513184,356.926880 
	C562.571533,351.817261 558.911865,349.314911 553.721924,350.297241 
	C549.111572,351.169830 547.919922,354.685272 547.367920,359.447601 
z"/>
<path fill="#000000" opacity="1.000000" stroke="none" 
	d="
M463.323151,361.467407 
	C459.625061,361.896973 459.816681,364.520538 460.704376,366.343689 
	C461.997467,368.999329 464.740204,367.942871 466.922760,367.402924 
	C468.449005,367.025360 469.041565,364.698578 471.104919,365.142822 
	C474.041382,370.820343 472.810730,373.230133 466.884613,373.288177 
	C462.721863,373.328979 458.556824,373.330902 454.395325,373.238220 
	C451.717255,373.178558 450.879883,372.078186 452.115814,369.374542 
	C455.199280,362.629425 454.943268,355.650635 452.348236,348.898346 
	C451.198761,345.907440 451.732361,344.805237 454.713959,344.738586 
	C458.709015,344.649261 462.707214,344.669067 466.703857,344.689148 
	C472.990295,344.720764 473.856781,346.246094 471.242493,352.737885 
	C468.536255,353.217346 467.471100,349.574951 464.620697,350.091614 
	C462.662354,350.446594 460.447205,349.962097 460.398041,352.994965 
	C460.355865,355.599030 462.073792,355.914215 464.057892,355.953308 
	C464.557404,355.963135 465.057556,355.961029 465.556305,355.986237 
	C467.430695,356.081024 469.490570,356.125427 469.556030,358.668060 
	C469.623413,361.286163 467.577637,361.326172 465.678680,361.370331 
	C465.012756,361.385803 464.347107,361.413330 463.323151,361.467407 
z"/>
<path fill="#000000" opacity="1.000000" stroke="none" 
	d="
M643.836975,348.865936 
	C643.780090,350.802826 643.585449,352.256348 641.732849,352.981201 
	C639.618591,351.953125 638.195129,349.423431 635.261475,350.069214 
	C633.665344,350.420502 632.286255,350.688446 632.149292,352.598785 
	C632.006958,354.584412 632.899719,355.772766 634.973633,355.908417 
	C635.638062,355.951874 636.302795,355.989319 636.967407,356.029938 
	C638.936829,356.150360 640.803467,356.585327 640.654724,359.064362 
	C640.515137,361.390869 638.558167,361.194641 636.898254,361.341278 
	C634.751099,361.531036 631.805054,360.526855 631.812012,364.304535 
	C631.814453,365.617157 632.028381,367.111450 633.591370,367.567505 
	C635.366760,368.085571 637.272888,368.298401 638.901855,367.238525 
	C640.166199,366.415924 640.943726,363.988403 642.862000,365.706482 
	C644.328796,367.020203 643.945557,369.086884 643.594666,370.912994 
	C643.179199,373.075134 641.503662,373.254883 639.772339,373.258972 
	C635.277466,373.269592 630.780457,373.331665 626.288452,373.213135 
	C623.278198,373.133698 622.225220,372.323700 623.848694,368.883118 
	C626.886414,362.445129 626.950562,355.512085 623.848694,349.066589 
	C622.223511,345.689545 623.124695,344.806335 626.241394,344.742401 
	C630.734497,344.650177 635.232605,344.786438 639.725098,344.679413 
	C642.434631,344.614868 643.763062,345.777313 643.836975,348.865936 
z"/>
<path fill="#000000" opacity="1.000000" stroke="none" 
	d="
M524.806946,373.347473 
	C517.985352,373.869781 513.221680,371.215576 510.795013,365.390533 
	C508.489899,359.857147 508.928986,354.254852 512.903076,349.443268 
	C517.139099,344.314697 522.847412,343.926697 528.836792,345.139191 
	C531.214478,345.620544 533.313293,346.694550 533.200134,349.695465 
	C533.145752,351.139404 533.666321,352.887146 532.048584,353.740051 
	C530.220825,354.703735 529.584534,353.079315 528.578308,351.940552 
	C526.044739,349.073364 522.838684,349.688385 519.960022,351.144012 
	C516.357178,352.965851 514.967957,358.746063 516.721863,363.133667 
	C518.296570,367.073029 522.099670,368.779999 526.588013,367.500854 
	C527.539001,367.229797 528.418701,366.717438 529.351074,366.369354 
	C530.902283,365.790192 531.949463,366.567627 532.635071,367.830811 
	C533.326599,369.104797 532.562683,370.059021 531.620361,370.833618 
	C529.772400,372.352722 527.666687,373.254333 524.806946,373.347473 
z"/>
<path fill="#000000" opacity="1.000000" stroke="none" 
	d="
M489.951996,354.269104 
	C489.945221,357.226288 489.898468,359.715942 489.944794,362.203888 
	C490.048584,367.778412 492.343719,369.338531 497.486664,366.972198 
	C499.433563,366.076385 500.980988,365.231781 501.666504,367.897583 
	C502.275421,370.265442 502.178650,372.953491 498.913361,373.125702 
	C493.785614,373.396179 488.630096,373.313599 483.493073,373.158661 
	C481.071716,373.085632 480.480316,371.772858 481.551849,369.427216 
	C484.681091,362.577118 484.977356,355.571198 481.740723,348.686096 
	C480.478027,346.000000 481.274414,344.976929 483.903992,344.743958 
	C485.057556,344.641754 486.225800,344.668365 487.386414,344.689148 
	C492.561981,344.781891 492.740112,345.146332 490.668762,349.944305 
	C490.163574,351.114532 490.178497,352.509308 489.951996,354.269104 
z"/>
<path fill="#000000" opacity="1.000000" stroke="none" 
	d="
M446.913055,402.813416 
	C451.393768,404.457001 450.222229,409.749634 453.509125,411.890289 
	C458.305420,410.238953 457.706116,401.449951 465.425873,403.139984 
	C463.181000,408.718353 462.323669,414.129730 463.345947,419.804260 
	C461.668884,421.030457 459.927277,420.387756 457.745880,419.901062 
	C458.763397,417.188721 460.575745,414.624512 459.334656,411.442322 
	C456.555695,412.824951 456.431122,417.319794 453.409363,417.565643 
	C449.807068,417.858734 450.826447,413.062683 448.328949,411.384766 
	C446.296906,413.947357 447.711456,416.786499 447.532898,419.448029 
	C446.079010,420.793976 444.502136,420.276947 442.689331,419.932648 
	C443.623627,414.777985 444.963776,409.850891 444.339478,404.739227 
	C444.132446,403.044098 445.297241,402.884766 446.913055,402.813416 
z"/>
<path fill="#000000" opacity="1.000000" stroke="none" 
	d="
M533.567810,413.884247 
	C533.401794,411.701294 533.216125,409.925049 533.012085,407.973419 
	C538.045959,406.719849 542.962219,408.147888 547.854065,407.700226 
	C550.595398,407.449341 551.465271,410.346008 551.148987,412.864685 
	C550.860535,415.161469 550.668823,417.406403 551.740723,420.446289 
	C543.665833,419.920807 550.292297,412.852295 546.200073,410.923737 
	C542.196289,412.373047 545.723328,418.306396 541.432556,420.027802 
	C537.921265,417.609619 541.384277,413.873352 539.904724,410.737183 
	C534.974670,412.172485 538.295837,418.241608 534.553040,420.101013 
	C531.697083,418.495941 533.739929,416.205231 533.567810,413.884247 
z"/>
<path fill="#000000" opacity="1.000000" stroke="none" 
	d="
M475.127899,421.927673 
	C474.095337,423.364471 473.504089,425.031403 471.119720,423.732391 
	C474.515137,418.233215 471.250671,413.472626 469.130707,408.604401 
	C470.886810,406.634430 472.695953,406.967102 474.600800,407.940002 
	C475.836395,409.709839 472.871521,412.282715 475.760315,413.703125 
	C478.297791,412.510162 476.952637,409.869293 477.756805,408.096802 
	C479.573669,406.890778 481.205841,407.155457 483.485840,408.631653 
	C479.891479,412.598724 477.811157,417.230255 475.127899,421.927673 
z"/>
<path fill="#000000" opacity="1.000000" stroke="none" 
	d="
M526.186768,413.379791 
	C526.151794,415.713409 526.151794,417.653381 526.151794,419.914154 
	C523.712646,420.070679 521.169983,420.360931 518.627380,420.361053 
	C516.113220,420.361176 515.263489,418.441650 515.085571,416.372345 
	C514.809204,413.158813 516.244934,410.616180 518.851440,408.785614 
	C520.681702,407.500275 522.784912,406.805450 524.912781,407.747192 
	C527.386902,408.842224 526.215881,411.121796 526.186768,413.379791 
M522.477844,411.480133 
	C518.703491,411.941803 517.965942,413.349335 519.593872,417.125916 
	C521.874878,416.184479 522.401428,414.223633 522.477844,411.480133 
z"/>
<path fill="#000000" opacity="1.000000" stroke="none" 
	d="
M507.981781,420.212830 
	C504.992645,419.977448 505.789795,418.015411 505.680908,416.460815 
	C505.548676,414.573517 506.545471,412.491608 504.659851,410.658173 
	C499.390076,411.733063 503.124054,418.091858 498.863464,420.276184 
	C496.187653,416.258331 500.083282,411.807953 496.936981,407.343170 
	C501.554962,408.215698 506.077118,405.573975 508.425476,409.259796 
	C510.350006,412.280365 510.382446,416.544495 507.981781,420.212830 
z"/>
<path fill="#000000" opacity="1.000000" stroke="none" 
	d="
M564.342651,417.246338 
	C566.363098,416.976166 566.991150,417.686066 565.896790,419.095764 
	C564.033142,421.496429 559.332458,421.064392 557.646851,418.450714 
	C555.338257,414.871033 557.482910,408.964325 561.598999,407.770447 
	C563.838684,407.120850 566.036499,407.238190 567.058044,409.771912 
	C568.048523,412.228546 566.369507,413.391266 564.449402,414.353455 
	C563.300476,414.929138 561.819580,414.868683 560.961853,416.137268 
	C561.354553,418.158905 562.783325,417.529755 564.342651,417.246338 
z"/>
<path fill="#000000" opacity="1.000000" stroke="none" 
	d="
M595.642090,414.962402 
	C593.753845,413.680939 592.508057,412.362000 593.559265,410.251282 
	C594.448608,408.465668 596.048584,407.654510 598.001892,407.531433 
	C599.344788,407.446777 600.707275,407.422699 601.590515,408.695251 
	C602.099365,409.428345 602.120239,410.229980 601.575806,410.999725 
	C600.377991,412.693268 599.241394,410.332886 597.704590,411.122101 
	C598.915894,413.511261 603.575134,414.672638 600.934509,418.484406 
	C599.535461,420.503937 597.339661,420.644318 595.104980,420.392365 
	C593.147705,420.171722 591.961731,419.380554 592.704285,417.129303 
	C594.362671,415.548981 596.005188,419.057220 597.660522,417.061951 
	C597.903687,415.751648 596.677551,415.636322 595.642090,414.962402 
z"/>
<path fill="#000000" opacity="1.000000" stroke="none" 
	d="
M586.285278,419.701050 
	C582.918579,420.718048 582.763245,418.746857 582.737122,416.581482 
	C582.704163,413.850098 583.834412,411.108887 582.112610,408.012085 
	C585.492004,407.135956 587.487549,407.202240 586.637329,411.122620 
	C586.031860,413.914032 586.499084,416.664703 586.285278,419.701050 
z"/>
</svg>